<svg xmlns="http://www.w3.org/2000/svg" viewBox="0 0 227.66 41" width="228" height="41" role="img" aria-label="Cosme SpA"><g transform="translate(0,0.300) scale(1.25000)"><path fill-rule="evenodd" fill="#fdfdfc" d="M7 0h18a7 7 0 0 1 7 7v18a7 7 0 0 1 -7 7h-18a7 7 0 0 1 -7 -7v-18a7 7 0 0 1 7 -7ZM22.772 24.668A11 11 0 1 1 22.772 7.332L19.879 11.036A6.3 6.3 0 1 0 19.879 20.964Z"/></g><path fill="#fdfdfc" d="M64.88 35.14Q61.00 35.14 58.04 33.36Q55.08 31.58 53.40 28.28Q51.72 24.98 51.72 20.34Q51.72 15.78 53.36 12.44Q55.00 9.10 57.96 7.28Q60.92 5.46 64.92 5.46Q70.36 5.46 73.36 8.16Q76.36 10.86 77.28 15.70L71.84 15.98Q71.32 13.18 69.60 11.58Q67.88 9.98 64.92 9.98Q62.52 9.98 60.76 11.26Q59.00 12.54 58.04 14.86Q57.08 17.18 57.08 20.34Q57.08 23.54 58.06 25.84Q59.04 28.14 60.80 29.38Q62.56 30.62 64.88 30.62Q68.04 30.62 69.78 28.88Q71.52 27.14 72.00 24.10L77.44 24.38Q76.88 27.70 75.28 30.12Q73.68 32.54 71.06 33.84Q68.44 35.14 64.88 35.14Z M89.76 34.98Q86.60 34.98 84.22 33.60Q81.84 32.22 80.54 29.70Q79.24 27.18 79.24 23.82Q79.24 20.42 80.54 17.92Q81.84 15.42 84.22 14.04Q86.60 12.66 89.76 12.66Q92.92 12.66 95.28 14.04Q97.64 15.42 98.94 17.92Q100.24 20.42 100.24 23.82Q100.24 27.18 98.94 29.70Q97.64 32.22 95.28 33.60Q92.92 34.98 89.76 34.98ZM89.76 30.82Q92.24 30.82 93.58 28.98Q94.92 27.14 94.92 23.82Q94.92 20.54 93.58 18.68Q92.24 16.82 89.76 16.82Q87.28 16.82 85.92 18.68Q84.56 20.54 84.56 23.82Q84.56 27.14 85.92 28.98Q87.28 30.82 89.76 30.82Z M112.00 34.98Q108.76 34.98 106.62 34.06Q104.48 33.14 103.36 31.50Q102.24 29.86 102.08 27.78L107.32 27.54Q107.60 29.22 108.68 30.14Q109.76 31.06 112.04 31.06Q113.84 31.06 114.78 30.48Q115.72 29.90 115.72 28.66Q115.72 27.94 115.38 27.46Q115.04 26.98 114.06 26.62Q113.08 26.26 111.20 25.90Q107.96 25.34 106.12 24.52Q104.28 23.70 103.54 22.46Q102.80 21.22 102.80 19.38Q102.80 16.38 105.10 14.52Q107.40 12.66 111.84 12.66Q114.92 12.66 116.90 13.64Q118.88 14.62 119.90 16.24Q120.92 17.86 121.08 19.86L115.88 20.10Q115.84 19.10 115.40 18.30Q114.96 17.50 114.08 17.04Q113.20 16.58 111.76 16.58Q109.96 16.58 109.02 17.30Q108.08 18.02 108.08 19.22Q108.08 20.06 108.46 20.62Q108.84 21.18 109.76 21.52Q110.68 21.86 112.28 22.14Q115.56 22.62 117.48 23.46Q119.40 24.30 120.22 25.56Q121.04 26.82 121.04 28.58Q121.04 31.66 118.58 33.32Q116.12 34.98 112.00 34.98Z M124.16 34.50V13.14H128.80L128.96 18.38L128.48 18.14Q128.84 16.42 129.74 15.20Q130.64 13.98 131.94 13.32Q133.24 12.66 134.80 12.66Q137.52 12.66 139.20 14.20Q140.88 15.74 141.32 18.42H140.64Q141.00 16.54 141.88 15.28Q142.76 14.02 144.10 13.34Q145.44 12.66 147.12 12.66Q149.32 12.66 150.92 13.60Q152.52 14.54 153.38 16.34Q154.24 18.14 154.24 20.78V34.50H149.12V22.10Q149.12 19.46 148.22 18.14Q147.32 16.82 145.48 16.82Q144.24 16.82 143.36 17.46Q142.48 18.10 142.02 19.32Q141.56 20.54 141.56 22.26V34.50H136.80V22.26Q136.80 19.62 136.00 18.22Q135.20 16.82 133.24 16.82Q132.00 16.82 131.14 17.46Q130.28 18.10 129.78 19.32Q129.28 20.54 129.28 22.26V34.50Z M167.80 34.98Q164.60 34.98 162.24 33.60Q159.88 32.22 158.60 29.70Q157.32 27.18 157.32 23.82Q157.32 20.46 158.60 17.96Q159.88 15.46 162.22 14.06Q164.56 12.66 167.68 12.66Q170.72 12.66 173.02 14.02Q175.32 15.38 176.56 17.94Q177.80 20.50 177.80 24.10V25.26H162.64Q162.80 28.06 164.18 29.48Q165.56 30.90 167.84 30.90Q169.56 30.90 170.70 30.12Q171.84 29.34 172.28 27.94L177.52 28.26Q176.64 31.38 174.06 33.18Q171.48 34.98 167.80 34.98ZM162.64 21.82H172.52Q172.36 19.22 171.04 17.96Q169.72 16.70 167.68 16.70Q165.64 16.70 164.30 18.02Q162.96 19.34 162.64 21.82Z"/><path fill="#a3a29a" d="M194.36 34.82Q192.60 34.82 191.32 34.20Q190.04 33.58 189.31 32.47Q188.58 31.36 188.46 29.88L191.10 29.72Q191.22 30.64 191.63 31.28Q192.04 31.92 192.73 32.25Q193.42 32.58 194.40 32.58Q195.24 32.58 195.83 32.37Q196.42 32.16 196.73 31.75Q197.04 31.34 197.04 30.74Q197.04 30.20 196.78 29.77Q196.52 29.34 195.78 28.99Q195.04 28.64 193.58 28.30Q191.82 27.90 190.76 27.39Q189.70 26.88 189.22 26.11Q188.74 25.34 188.74 24.18Q188.74 22.94 189.36 21.99Q189.98 21.04 191.12 20.51Q192.26 19.98 193.86 19.98Q195.56 19.98 196.74 20.59Q197.92 21.20 198.60 22.26Q199.28 23.32 199.44 24.70L196.82 24.82Q196.72 24.04 196.35 23.46Q195.98 22.88 195.35 22.55Q194.72 22.22 193.82 22.22Q192.70 22.22 192.05 22.73Q191.40 23.24 191.40 24.08Q191.40 24.66 191.67 25.04Q191.94 25.42 192.64 25.69Q193.34 25.96 194.60 26.26Q196.50 26.66 197.62 27.28Q198.74 27.90 199.22 28.72Q199.70 29.54 199.70 30.60Q199.70 31.90 199.04 32.85Q198.38 33.80 197.18 34.31Q195.98 34.82 194.36 34.82Z M202.06 37.50V23.82H204.52L204.58 26.10L204.32 25.98Q204.72 24.80 205.63 24.19Q206.54 23.58 207.76 23.58Q209.28 23.58 210.29 24.34Q211.30 25.10 211.80 26.36Q212.30 27.62 212.30 29.16Q212.30 30.70 211.79 31.96Q211.28 33.22 210.27 33.98Q209.26 34.74 207.74 34.74Q206.94 34.74 206.25 34.46Q205.56 34.18 205.07 33.66Q204.58 33.14 204.38 32.44L204.62 32.24V37.50ZM207.14 32.66Q208.30 32.66 208.97 31.73Q209.64 30.80 209.64 29.16Q209.64 27.52 208.97 26.59Q208.30 25.66 207.14 25.66Q206.36 25.66 205.80 26.05Q205.24 26.44 204.93 27.22Q204.62 28.00 204.62 29.16Q204.62 30.32 204.92 31.10Q205.22 31.88 205.79 32.27Q206.36 32.66 207.14 32.66Z M213.36 34.50 218.48 20.30H221.66L226.78 34.50H224.06L222.88 31.14H217.26L216.08 34.50ZM218.02 28.92H222.12L220.08 22.92Z"/></svg>
